<?xml version="1.0" encoding="iso-8859-1"?>
<!-- Generator: Adobe Illustrator 19.0.0, SVG Export Plug-In . SVG Version: 6.00 Build 0)  -->
<svg version="1.1" id="Layer_1" xmlns="http://www.w3.org/2000/svg" xmlns:xlink="http://www.w3.org/1999/xlink" x="0px" y="0px"
	 viewBox="0 0 512 512" style="enable-background:new 0 0 512 512;" xml:space="preserve">
<path style="fill:#FFB14D;" d="M500.416,205.471c0-103.736-109.435-187.832-244.417-187.832
	c-134.992,0-244.415,84.097-244.415,187.832c0,92.583,87.164,169.5,201.873,184.969c6.028,36.68-5.095,75.631-33.384,103.922
	c60.701,0,110.811-45.288,118.42-103.916C413.219,374.991,500.416,298.066,500.416,205.471z"/>
<g>
	<path style="fill:#11113F;" d="M340.898,131.262H171.102c-6.397,0-11.584,5.186-11.584,11.584s5.187,11.584,11.584,11.584h169.796
		c6.397,0,11.584-5.186,11.584-11.584C352.482,136.448,347.295,131.262,340.898,131.262z"/>
	<path style="fill:#11113F;" d="M340.898,193.887H171.102c-6.397,0-11.584,5.186-11.584,11.584c0,6.398,5.187,11.584,11.584,11.584
		h169.796c6.397,0,11.584-5.186,11.584-11.584C352.482,199.073,347.295,193.887,340.898,193.887z"/>
	<path style="fill:#11113F;" d="M340.898,256.49H171.102c-6.397,0-11.584,5.186-11.584,11.584s5.187,11.584,11.584,11.584h169.796
		c6.397,0,11.584-5.186,11.584-11.584S347.295,256.49,340.898,256.49z"/>
	<path style="fill:#11113F;" d="M435.885,63.469C387.706,26.444,323.822,6.055,255.999,6.055
		c-67.826,0-131.711,20.39-179.888,57.415C27.029,101.188,0,151.619,0,205.471c0,47.757,21.922,93.921,61.726,129.987
		c36.673,33.228,86.584,56.181,141.334,65.142c2.699,31.559-8.644,63.035-31.179,85.572c-3.312,3.313-4.303,8.295-2.51,12.623
		c1.793,4.329,6.015,7.151,10.701,7.151c62.65,0,116.392-44.677,128.473-105.283c54.896-8.914,104.947-31.891,141.708-65.191
		C490.071,299.402,512,253.234,512,205.471C512,151.619,484.968,101.188,435.885,63.469z M296.946,378.966
		c-5.191,0.7-9.267,4.796-9.941,9.99c-5.768,44.444-38.482,79.807-80.371,90.495c16.729-26.776,23.474-59.126,18.254-90.888
		c-0.826-5.025-4.836-8.921-9.882-9.602c-111.158-14.992-191.838-87.954-191.838-173.49c0-97.184,104.448-176.248,232.831-176.248
		c128.385,0,232.834,79.065,232.834,176.248C488.833,291.023,408.132,363.989,296.946,378.966z"/>
</g>
<g>
</g>
<g>
</g>
<g>
</g>
<g>
</g>
<g>
</g>
<g>
</g>
<g>
</g>
<g>
</g>
<g>
</g>
<g>
</g>
<g>
</g>
<g>
</g>
<g>
</g>
<g>
</g>
<g>
</g>
</svg>
